<svg width="46" height="48" viewBox="0 0 46 48" fill="none" xmlns="http://www.w3.org/2000/svg">
<rect width="45.88" height="48" rx="12" fill="#FFD9E2"/>
<path d="M12.9399 20V17C12.9399 16.45 13.1358 15.9792 13.5274 15.5875C13.9191 15.1958 14.3899 15 14.9399 15H30.9399C31.4899 15 31.9608 15.1958 32.3524 15.5875C32.7441 15.9792 32.9399 16.45 32.9399 17V22.5H30.9399V17H14.9399V20H12.9399ZM17.9399 28C17.7566 28 17.5816 27.9542 17.4149 27.8625C17.2483 27.7708 17.1233 27.6333 17.0399 27.45L15.3149 24H12.9399V22H15.9399C16.1233 22 16.2983 22.0458 16.4649 22.1375C16.6316 22.2292 16.7566 22.3667 16.8399 22.55L17.9399 24.75L21.0399 18.55C21.1233 18.3833 21.2483 18.2583 21.4149 18.175C21.5816 18.0917 21.7566 18.05 21.9399 18.05C22.1233 18.05 22.2983 18.0917 22.4649 18.175C22.6316 18.2583 22.7566 18.3833 22.8399 18.55L24.5149 21.9C24.2149 22.0833 23.9274 22.275 23.6524 22.475C23.3774 22.675 23.1233 22.9 22.8899 23.15L21.9399 21.25L18.8399 27.45C18.7566 27.6333 18.6316 27.7708 18.4649 27.8625C18.2983 27.9542 18.1233 28 17.9399 28ZM21.6149 31H14.9399C14.3899 31 13.9191 30.8042 13.5274 30.4125C13.1358 30.0208 12.9399 29.55 12.9399 29V26H14.9399V29H21.0149C21.0649 29.35 21.1399 29.6917 21.2399 30.025C21.3399 30.3583 21.4649 30.6833 21.6149 31ZM27.9399 33C26.5566 33 25.3774 32.5125 24.4024 31.5375C23.4274 30.5625 22.9399 29.3833 22.9399 28C22.9399 26.6167 23.4274 25.4375 24.4024 24.4625C25.3774 23.4875 26.5566 23 27.9399 23C29.3233 23 30.5024 23.4875 31.4774 24.4625C32.4524 25.4375 32.9399 26.6167 32.9399 28C32.9399 29.3833 32.4524 30.5625 31.4774 31.5375C30.5024 32.5125 29.3233 33 27.9399 33ZM28.1399 28.5L30.4149 26.225L29.7149 25.525L27.4399 27.8L28.1399 28.5Z" fill="#923357"/>
</svg>
