<svg width="622" height="300" viewBox="0 0 622 300" fill="none" xmlns="http://www.w3.org/2000/svg">
<path d="M48.8 178.41C48.8 173.992 52.3818 170.41 56.8 170.41H88.8C93.2183 170.41 96.8 173.992 96.8 178.41V284H48.8V178.41Z" fill="#9CF49C"/>
<path d="M114.4 107.41C114.4 102.992 117.982 99.4102 122.4 99.4102H154.4C158.818 99.4102 162.4 102.992 162.4 107.41V284H114.4V107.41Z" fill="#2E7D32"/>
<path d="M180 150C180 145.582 183.582 142 188 142H220C224.418 142 228 145.582 228 150V284H180V150Z" fill="#9CF49C"/>
<path d="M245.6 50.6103C245.6 46.1921 249.182 42.6104 253.6 42.6104H285.6C290.018 42.6104 293.6 46.1921 293.6 50.6104V284H245.6V50.6103Z" fill="#2E7D32"/>
<path d="M311.2 121.61C311.2 117.192 314.782 113.61 319.2 113.61H351.2C355.618 113.61 359.2 117.192 359.2 121.61V284H311.2V121.61Z" fill="#9CF49C"/>
<path d="M376.8 79C376.8 74.5817 380.382 71 384.8 71H416.8C421.218 71 424.8 74.5817 424.8 79V284H376.8V79Z" fill="#2E7D32"/>
<path d="M442.4 36.4102C442.4 31.9919 445.982 28.4102 450.4 28.4102H482.4C486.818 28.4102 490.4 31.9919 490.4 36.4102V284H442.4V36.4102Z" fill="#9CF49C"/>
</svg>
