<svg width="100" height="100" viewBox="0 0 100 100" fill="none" xmlns="http://www.w3.org/2000/svg">
<path d="M25 100V75H0V25H25V0H75V25H100V75H75V100H25ZM10 45H35C35.8333 45 36.625 45.2083 37.375 45.625C38.125 46.0417 38.7083 46.5833 39.125 47.25L43.5 53.75L50.25 33.5C50.5833 32.5 51.1875 31.6667 52.0625 31C52.9375 30.3333 53.9167 30 55 30C55.8333 30 56.625 30.2083 57.375 30.625C58.125 31.0417 58.7083 31.5833 59.125 32.25L67.625 45H90V35H65V10H35V35H10V45ZM35 90H65V65H90V55H65C64.1667 55 63.375 54.7917 62.625 54.375C61.875 53.9583 61.25 53.4167 60.75 52.75L56.5 46.25L49.75 66.5C49.4167 67.5 48.7917 68.3333 47.875 69C46.9583 69.6667 45.9583 70 44.875 70C44.0417 70 43.25 69.7917 42.5 69.375C41.75 68.9583 41.1667 68.4167 40.75 67.75L32.25 55H10V65H35V90Z" fill="white"/>
</svg>
