<svg width="48" height="48" viewBox="0 0 48 48" fill="none" xmlns="http://www.w3.org/2000/svg">
<rect width="48" height="48" rx="12" fill="#A3F69C"/>
<path d="M24 24C24.8333 24 25.5417 23.7083 26.125 23.125C26.7083 22.5417 27 21.8333 27 21C27 20.1667 26.7083 19.4583 26.125 18.875C25.5417 18.2917 24.8333 18 24 18C23.1667 18 22.4583 18.2917 21.875 18.875C21.2917 19.4583 21 20.1667 21 21C21 21.8333 21.2917 22.5417 21.875 23.125C22.4583 23.7083 23.1667 24 24 24ZM22.5 21.5C22.3667 21.5 22.25 21.45 22.15 21.35C22.05 21.25 22 21.1333 22 21C22 20.8667 22.05 20.75 22.15 20.65C22.25 20.55 22.3667 20.5 22.5 20.5C22.6333 20.5 22.75 20.55 22.85 20.65C22.95 20.75 23 20.8667 23 21C23 21.1333 22.95 21.25 22.85 21.35C22.75 21.45 22.6333 21.5 22.5 21.5ZM24 21.5C23.8667 21.5 23.75 21.45 23.65 21.35C23.55 21.25 23.5 21.1333 23.5 21C23.5 20.8667 23.55 20.75 23.65 20.65C23.75 20.55 23.8667 20.5 24 20.5C24.1333 20.5 24.25 20.55 24.35 20.65C24.45 20.75 24.5 20.8667 24.5 21C24.5 21.1333 24.45 21.25 24.35 21.35C24.25 21.45 24.1333 21.5 24 21.5ZM25.5 21.5C25.3667 21.5 25.25 21.45 25.15 21.35C25.05 21.25 25 21.1333 25 21C25 20.8667 25.05 20.75 25.15 20.65C25.25 20.55 25.3667 20.5 25.5 20.5C25.6333 20.5 25.75 20.55 25.85 20.65C25.95 20.75 26 20.8667 26 21C26 21.1333 25.95 21.25 25.85 21.35C25.75 21.45 25.6333 21.5 25.5 21.5ZM17 33C16.45 33 15.9792 32.8042 15.5875 32.4125C15.1958 32.0208 15 31.55 15 31V17C15 16.45 15.1958 15.9792 15.5875 15.5875C15.9792 15.1958 16.45 15 17 15H31C31.55 15 32.0208 15.1958 32.4125 15.5875C32.8042 15.9792 33 16.45 33 17V31C33 31.55 32.8042 32.0208 32.4125 32.4125C32.0208 32.8042 31.55 33 31 33H17ZM17 31H31V17H17V31ZM17 17V31V17Z" fill="#0D631B"/>
</svg>
